<svg xmlns="http://www.w3.org/2000/svg" viewBox="0 0 64 64" width="64" height="64">
  <defs>
    <!-- 渐变定义 -->
    <linearGradient id="fishGradient" x1="0%" y1="0%" x2="100%" y2="100%">
      <stop offset="0%" style="stop-color:#ff4444;stop-opacity:1" />
      <stop offset="50%" style="stop-color:#ff6666;stop-opacity:1" />
      <stop offset="100%" style="stop-color:#cc2222;stop-opacity:1" />
    </linearGradient>
    
    <linearGradient id="finGradient" x1="0%" y1="0%" x2="100%" y2="100%">
      <stop offset="0%" style="stop-color:#ff6666;stop-opacity:0.8" />
      <stop offset="100%" style="stop-color:#ff4444;stop-opacity:0.9" />
    </linearGradient>
    
    <radialGradient id="eyeGradient" cx="50%" cy="30%" r="50%">
      <stop offset="0%" style="stop-color:#ffffff;stop-opacity:1" />
      <stop offset="70%" style="stop-color:#f0f0f0;stop-opacity:1" />
      <stop offset="100%" style="stop-color:#cccccc;stop-opacity:1" />
    </radialGradient>
  </defs>
  
  <!-- 背景圆形 -->
  <circle cx="32" cy="32" r="30" fill="#f8f9fa" stroke="#e9ecef" stroke-width="2"/>
  
  <!-- 鱼尾 -->
  <path d="M8 32 L18 26 L16 32 L18 38 Z" fill="url(#finGradient)" stroke="#cc2222" stroke-width="0.5"/>
  
  <!-- 鱼身主体 -->
  <ellipse cx="32" cy="32" rx="20" ry="12" fill="url(#fishGradient)" stroke="#cc2222" stroke-width="1"/>
  
  <!-- 鱼鳞纹理 -->
  <g opacity="0.3">
    <path d="M20 28 Q24 26 28 28 Q24 30 20 28" fill="none" stroke="#cc2222" stroke-width="0.5"/>
    <path d="M24 32 Q28 30 32 32 Q28 34 24 32" fill="none" stroke="#cc2222" stroke-width="0.5"/>
    <path d="M28 36 Q32 34 36 36 Q32 38 28 36" fill="none" stroke="#cc2222" stroke-width="0.5"/>
    <path d="M32 28 Q36 26 40 28 Q36 30 32 28" fill="none" stroke="#cc2222" stroke-width="0.5"/>
    <path d="M36 32 Q40 30 44 32 Q40 34 36 32" fill="none" stroke="#cc2222" stroke-width="0.5"/>
  </g>
  
  <!-- 背鳍 -->
  <path d="M28 20 Q32 16 36 20 L34 24 L30 24 Z" fill="url(#finGradient)" stroke="#cc2222" stroke-width="0.5"/>
  
  <!-- 腹鳍 -->
  <path d="M28 44 Q32 48 36 44 L34 40 L30 40 Z" fill="url(#finGradient)" stroke="#cc2222" stroke-width="0.5"/>
  
  <!-- 胸鳍 -->
  <ellipse cx="22" cy="36" rx="3" ry="6" fill="url(#finGradient)" stroke="#cc2222" stroke-width="0.5" transform="rotate(-20 22 36)"/>
  
  <!-- 鱼眼 -->
  <circle cx="42" cy="28" r="4" fill="url(#eyeGradient)" stroke="#999" stroke-width="0.5"/>
  <circle cx="43" cy="27" r="2" fill="#333"/>
  <circle cx="43.5" cy="26.5" r="0.8" fill="#fff"/>
  
  <!-- 鱼嘴 -->
  <ellipse cx="52" cy="32" rx="3" ry="2" fill="#ff4444" stroke="#cc2222" stroke-width="0.5"/>
  
  <!-- 装饰性波浪线（代表水流） -->
  <g opacity="0.4">
    <path d="M4 16 Q8 14 12 16 Q16 18 20 16" fill="none" stroke="#4a90e2" stroke-width="1"/>
    <path d="M44 48 Q48 46 52 48 Q56 50 60 48" fill="none" stroke="#4a90e2" stroke-width="1"/>
  </g>
  
  <!-- 小气泡 -->
  <circle cx="48" cy="20" r="1" fill="#4a90e2" opacity="0.6"/>
  <circle cx="52" cy="18" r="0.8" fill="#4a90e2" opacity="0.5"/>
  <circle cx="46" cy="46" r="1.2" fill="#4a90e2" opacity="0.4"/>
</svg>
